<svg width="127" height="16" viewBox="0 0 127 16" fill="currentColor" xmlns="http://www.w3.org/2000/svg">
<path d="M0.320312 15.0001V0.700108H11.2803C14.8803 0.700108 16.1003 2.16011 16.1003 4.22011C16.1003 5.90011 15.1003 7.00011 13.6003 7.54011C15.4003 7.98011 16.9003 8.96011 16.9003 11.0801C16.9003 13.4201 15.4803 15.0001 12.1203 15.0001H0.320312ZM4.30031 12.1001H10.8603C12.0003 12.1001 12.7803 11.8401 12.7803 10.5601C12.7803 9.26011 11.8603 9.06011 10.8603 9.06011H4.30031V12.1001ZM4.30031 6.60011H10.0603C11.2003 6.60011 12.1203 6.38011 12.1203 5.08011C12.1203 3.86011 11.3403 3.60011 10.0603 3.60011H4.30031V6.60011Z"/>
<path d="M16.4641 15.0001L24.0041 0.700108H29.0641L36.5841 15.0001H32.3441L30.9041 12.1201H22.1441L20.7041 15.0001H16.4641ZM23.5841 9.24011H29.4641L26.5241 3.36011L23.5841 9.24011Z"/>
<path d="M45.1695 15.4001C39.3895 15.4001 36.1895 14.0601 36.0295 10.2601H40.1695C40.1695 11.7401 41.5095 12.5001 45.0495 12.5001C48.4295 12.5001 49.3695 12.0001 49.3695 10.9001C49.3695 9.74011 48.6095 9.52011 44.8295 9.28011L44.0895 9.24011C38.5895 8.92011 36.3295 7.64011 36.3295 4.62011C36.3295 1.74011 39.3295 0.360107 44.2895 0.360107C49.8295 0.360107 52.7495 2.04011 52.8895 5.26011H48.7695C48.7695 3.76011 47.2295 3.26011 44.1895 3.26011C41.3095 3.26011 40.4495 3.72011 40.4495 4.64011C40.4495 5.70011 41.2295 6.00011 44.7095 6.26011L45.5295 6.32011C50.4695 6.70011 53.4895 7.16011 53.4895 10.7601C53.4895 14.2801 50.3695 15.4001 45.1695 15.4001Z"/>
<path d="M54.6836 15.0001V0.700108H69.1036V3.72011H58.6636V6.46011H68.7036V9.22011H58.6636V11.9801H69.1036V15.0001H54.6836Z"/>
<path d="M70.5 15.0001V0.700108H74.48V11.6401H84.44V15.0001H70.5Z"/>
<path d="M85.5156 15.0001V0.700108H89.4956V15.0001H85.5156Z"/>
<path d="M91.4492 15.0001V0.700108H97.3292L105.869 11.2601V0.700108H109.849V15.0001H103.969L95.4292 4.40011V15.0001H91.4492Z"/>
<path d="M111.797 15.0001V0.700108H126.217V3.72011H115.777V6.46011H125.817V9.22011H115.777V11.9801H126.217V15.0001H111.797Z"/>
</svg>
